# AST/ASF file generated using VICON BodyLanguage
# -----------------------------------------------
:version 1.10
:name VICON
:units
  mass 1.0
  length 0.45
  angle deg
:documentation
   .ast/.asf automatically generated from VICON data using
   VICON BodyBuilder and BodyLanguage model FoxedUp or BRILLIANT.MOD
:root
   order TX TY TZ RX RY RZ
   axis XYZ
   position 0 0 0  
   orientation 0 0 0 
:bonedata
  begin
     id 1 
     name lhipjoint
     direction 0.682418 -0.694059 0.22932 
     length 2.25561 
     axis 0 0 0  XYZ
  end
  begin
     id 2 
     name lfemur
     direction 0.34202 -0.939693 0  
     length 6.96448  
     axis 0 0 20  XYZ
    dof rx ry rz
    limits (-160.0 20.0)
           (-70.0 70.0)
           (-60.0 70.0)
  end
  begin
     id 3 
     name ltibia
     direction 0.34202 -0.939693 0   
     length 6.88553   
     axis 0 0 20   XYZ
    dof rx
    limits (-10.0 170.0)
  end
  begin
     id 4 
     name lfoot
     direction 0.0723587 -0.198804 0.977364   
     length 1.88518   
     axis -90 7.62852e-016 20   XYZ
    dof rx rz
    limits (-45.0 90.0)
           (-70.0 20.0)
  end
  begin
     id 5 
     name ltoes
     direction 1.53558e-011 -4.21962e-011 1   
     length 0.952124   
     axis -90 7.62852e-016 20   XYZ
    dof rx
    limits (-90.0 20.0)
  end
  begin
     id 6 
     name rhipjoint
     direction -0.657603 -0.71533 0.236348   
     length 2.18854  
     axis 0 0 0  XYZ 
  end
  begin
     id 7 
     name rfemur
     direction -0.34202 -0.939693 0   
     length 6.86686   
     axis 0 0 -20   XYZ
    dof rx ry rz
    limits (-160.0 20.0)
           (-70.0 70.0)
           (-70.0 60.0)
  end
  begin
     id 8 
     name rtibia
     direction -0.34202 -0.939693 0   
     length 6.59503   
     axis 0 0 -20   XYZ
    dof rx
    limits (-10.0 170.0)
 end
 begin
     id 9 
     name rfoot
     direction -0.101977 -0.280179 0.954516   
     length 1.93723  
     axis -90 -7.62852e-016 -20   XYZ
    dof rx rz
    limits (-45.0 90.0)
           (-20.0 70.0)
  end
  begin
     id 10 
     name rtoes
     direction -1.53564e-011 -4.21897e-011 1   
     length 0.970315   
     axis -90 -7.62852e-016 -20   XYZ
    dof rx
    limits (-90.0 20.0)
  end
  begin
     id 11 
     name lowerback
     direction -0.0339559 0.999421 -0.00235966   
     length 1.88543   
     axis 0 0 0   XYZ
    dof rx ry rz
    limits (-20.0 45.0)
           (-30.0 30.0)
           (-30.0 30.0)
  end
  begin
     id 12 
     name upperback
     direction 0.00401003 0.999739 0.0224689   
     length 1.8856   
     axis 0 0 0   XYZ
    dof rx ry rz
    limits (-20.0 45.0)
           (-30.0 30.0)
           (-30.0 30.0)
  end
  begin
     id 13 
     name thorax
     direction 0.0198619 0.999546 0.0226536   
     length 1.88352   
     axis 0 0 0   XYZ
    dof rx ry rz
    limits (-20.0 45.0)
           (-30.0 30.0)
           (-30.0 30.0)
  end
  begin
     id 14 
     name lowerneck
     direction -0.0461848 0.998632 0.0245198   
     length 1.34895   
     axis 0 0 0   XYZ
    dof rx ry rz
    limits (-20.0 45.0)
           (-30.0 30.0)
           (-30.0 30.0)
  end
  begin
     id 15 
     name upperneck
     direction -0.0180627 0.994724 -0.100984   
     length 1.35214   
     axis 0 0 0   XYZ
    dof rx ry rz
    limits (-20.0 45.0)
           (-30.0 30.0)
           (-30.0 30.0)
  end
  begin
     id 16
     name head
     direction -0.00374772 0.999293 -0.037403  
     length 1.3568  
     axis 0 0 0   XYZ
    dof rx ry rz
    limits (-20.0 45.0)
           (-30.0 30.0)
           (-30.0 30.0)
  end
  begin
     id 17 
     name lclavicle
     direction 0.971773 0.191119 0.138311  
     length 2.84954  
     axis 0 0 0   XYZ
    dof ry rz
    limits (-20.0 10.0)
           (0.0 20.0)
  end
  begin
     id 18 
     name lhumerus
     direction 1 -4.4897e-011 -2.43761e-027   
     length 4.40919   
     axis 180 -30 -90   XYZ
    dof rx ry rz
    limits (-60.0 90.0)
           (-90.0 90.0)
           (-90.0 90.0)
  end
  begin
     id 19
     name lradius
     direction 1 -4.4896e-011 -9.1621e-027   
     length 3.03857   
     axis 180 -30 -90   XYZ
    dof rx
    limits (-10.0 170.0)
  end
  begin
     id 20
     name lwrist
     direction 1 -4.4896e-011 -1.41363e-026   
     length 1.51928   
     axis 1.07133e-014 90 90   XYZ
    dof ry
    limits (-180.0 0.0)
 end
  begin
     id 21 
     name lhand
     direction 1 -4.48978e-011 -2.82725e-026   
     length 0.523208   
     axis 1.80403e-014 90 90   XYZ
    dof rx rz
    limits (-90.0 90.0)
           (-45.0 45.0)
  end
  begin
     id 22 
     name lfingers
     direction 1 -4.48977e-011 -5.6545e-026   
     length 0.421824   
     axis 3.60806e-014 90 90   XYZ
    dof rx
    limits (0.0 90.0)
  end
  begin
     id 23
     name lthumb
     direction 0.707107 -6.34962e-011 0.707107   
     length 0.605657   
     axis -90 45 2.85299e-015   XYZ
    dof rx rz
    limits (-45.0 45.0)
           (-45.0 45.0)
  end
  begin
     id 24 
     name rclavicle
     direction -0.957247 0.24311 0.156766   
     length 3.12406  
     axis 0 0 0   XYZ 
    dof ry rz
    limits (-10.0 20.0)
           (-20.0 0.0)
  end
  begin
     id 25 
     name rhumerus
     direction -1 -4.48964e-011 -1.70632e-027  
     length 4.61969   
     axis 180 30 90   XYZ
    dof rx ry rz
    limits (-90.0 60.0)
           (-90.0 90.0)
           (-90.0 90.0)
  end
  begin
     id 26 
     name rradius
     direction -1 -4.48966e-011 -6.60395e-027   
     length 3.09382   
     axis 180 30 90   XYZ
    dof rx
    limits (-10.0 170.0)
  end
  begin
     id 27 
     name rwrist
     direction -1 -4.48963e-011 -1.41363e-026   
     length 1.54691   
     axis 1.07133e-014 -90 -90   XYZ
    dof ry
    limits (-180.0 0.0)
  end
  begin
     id 28
     name rhand
     direction -1 -4.49013e-011 -2.82725e-026   
     length 0.500896   
     axis 1.80403e-014 -90 -90   XYZ
    dof rx rz
    limits (-90.0 90.0)
           (-45.0 45.0)
  end
  begin
     id 29
     name rfingers
     direction -1 -4.48902e-011 -5.6545e-026   
     length 0.403835   
     axis 3.60806e-014 -90 -90   XYZ
    dof rx
    limits (0.0 90.0)
  end
  begin
     id 30
     name rthumb
     direction -0.707107 -6.34953e-011 0.707107   
     length 0.579829   
     axis -90 -45 -2.85299e-015   XYZ
    dof rx rz
    limits (-45.0 45.0)
           (-45.0 45.0)
  end
:hierarchy
  begin
    root lhipjoint rhipjoint lowerback
    lhipjoint lfemur
    lfemur ltibia
    ltibia lfoot
    lfoot ltoes
    rhipjoint rfemur
    rfemur rtibia
    rtibia rfoot
    rfoot rtoes
    lowerback upperback
    upperback thorax
    thorax lowerneck lclavicle rclavicle
    lowerneck upperneck
    upperneck head
    lclavicle lhumerus
    lhumerus lradius
    lradius lwrist
    lwrist lhand lthumb
    lhand lfingers
    rclavicle rhumerus
    rhumerus rradius
    rradius rwrist
    rwrist rhand rthumb
    rhand rfingers
  end

#!OML:ASF E:\madness\Project 1\Capture day 1\Session 1\Female1.ASF
:FULLY-SPECIFIED
:DEGREES
190
root 16.7375 16.3445 -2.85934 -164.959 -76.4553 177.66
lowerback 18.7729 3.99768 -7.17717
upperback 3.37831 3.34925 -2.17678
thorax -7.12937 1.62788 0.902786
lowerneck -1.97443 11.0488 4.32095
upperneck 17.5279 16.3052 -12.8637
head 7.11543 7.08036 -3.62444
rclavicle 8.74653e-015 2.5842e-014
rhumerus -43.4118 -36.2509 3.19725
rradius 111.744
rwrist -25.1991
rhand 2.43567 -43.7398
rfingers 7.12502
rthumb 27.9212 -71.684
lclavicle 8.74653e-015 2.5842e-014
lhumerus -29.1149 9.34915 23.2583
lradius 114.921
lwrist 6.55939
lhand -27.7288 -7.50945
lfingers 7.12502
lthumb -1.12401 22.4673
rfemur -21.8712 5.80709 22.6768
rtibia 14.9797
rfoot -5.1391 -4.7792
rtoes 7.96289
lfemur -79.522 -16.9787 0.23965
ltibia 101.576
lfoot -3.29409 -9.27606
ltoes -4.17831
191
root 16.7771 16.3386 -2.82368 -163.631 -77.1533 176.567
lowerback 19.2202 3.79164 -6.76796
upperback 3.36906 3.12882 -2.0849
thorax -7.34756 1.51881 0.80735
lowerneck -2.37569 10.7964 3.85894
upperneck 17.5969 15.9826 -12.6907
head 7.12523 6.89056 -3.50872
rclavicle -3.39922e-014 6.0033e-014
rhumerus -43.1429 -36.1431 2.95043
rradius 111.237
rwrist -25.295
rhand 2.96649 -43.1401
rfingers 7.12502
rthumb 28.4285 -71.0007
lclavicle -3.39922e-014 6.0033e-014
lhumerus -28.7728 8.95791 23.5665
lradius 115.06
lwrist 6.50918
lhand -27.6564 -7.5144
lfingers 7.12502
lthumb -1.05403 22.4627
rfemur -22.3383 5.50832 22.3519
rtibia 15.018
rfoot -5.17383 -5.23482
rtoes 7.68473
lfemur -79.9425 -17.373 -0.150598
ltibia 101.549
lfoot -2.53648 -9.21372
ltoes 0.421031
192
root 16.8154 16.3289 -2.78928 -161.397 -77.8021 175.157
lowerback 18.8634 3.54398 -6.43383
upperback 3.25668 2.92562 -2.01611
thorax -7.25101 1.42385 0.759956
lowerneck -2.27189 10.4362 3.96132
upperneck 17.3612 15.5092 -12.9902
head 7.0181 6.66828 -3.67417
rclavicle 1.33186e-014 3.22031e-014
rhumerus -42.6431 -36.072 2.51421
rradius 110.664
rwrist -25.5197
rhand 3.16883 -42.8871
rfingers 7.12502
rthumb 28.6219 -70.7153
lclavicle 1.33186e-014 3.22031e-014
lhumerus -28.575 8.53272 23.9578
lradius 115.362
lwrist 6.43903
lhand -28.0721 -7.48952
lfingers 7.12502
lthumb -1.45557 22.4853
rfemur -23.6738 5.26866 21.8965
rtibia 15.5048
rfoot -5.39206 -5.68051
rtoes 8.13109
lfemur -80.9281 -17.4664 -0.55942
ltibia 101.491
lfoot -2.2727 -9.12351
ltoes 0.959077
193
root 16.8281 16.3479 -2.77265 -162.445 -76.9552 176.014
lowerback 19.0662 4.01516 -6.63693
upperback 3.49663 3.48767 -1.85828
thorax -7.15622 1.6858 0.897383
lowerneck -2.60046 10.1333 3.85167
upperneck 17.3167 15.1425 -13.1745
head 7.03322 6.4634 -3.73462
rclavicle -1.21259e-014 1.59028e-014
rhumerus -41.9552 -36.1197 1.89357
rradius 110.115
rwrist -25.8508
rhand 2.35234 -43.4298
rfingers 7.12502
rthumb 27.8415 -71.3869
lclavicle -1.21259e-014 1.59028e-014
lhumerus -28.4183 8.19831 24.4262
lradius 115.694
lwrist 6.34289
lhand -28.1966 -7.68218
lfingers 7.12502
lthumb -1.57582 22.2917
rfemur -23.82 5.8804 21.8014
rtibia 16.0406
rfoot -5.64323 -5.4475
rtoes 8.12046
lfemur -79.6524 -16.6074 -1.59257
ltibia 101.44
lfoot -2.47781 -8.69261
ltoes 0.0836719
194
root 16.871 16.3274 -2.7299 -158.928 -78.4873 173.335
lowerback 18.774 3.42982 -6.00445
upperback 3.3711 2.90282 -1.75633
thorax -7.06923 1.40429 0.812791
lowerneck -2.86264 9.935 3.78809
upperneck 17.5605 14.9541 -13.4604
head 7.15935 6.32128 -3.82179
rclavicle 1.8487e-014 3.37934e-015
rhumerus -41.4939 -35.9263 1.47683
rradius 109.647
rwrist -26.1166
rhand 1.88553 -43.7401
rfingers 7.12502
rthumb 27.3951 -71.7686
lclavicle 1.8487e-014 3.37934e-015
lhumerus -28.2998 7.71432 24.9517
lradius 116.014
lwrist 6.30488
lhand -27.8355 -7.96566
lfingers 7.12502
lthumb -1.22705 22.0106
rfemur -25.1096 5.24926 21.2369
rtibia 16.4685
rfoot -5.91165 -6.49057
rtoes 7.76936
lfemur -80.9879 -17.4431 -1.92579
ltibia 101.219
lfoot -2.0419 -8.89296
ltoes 0.28547
195
root 16.903 16.3214 -2.69936 -157.408 -79.1178 172.221
lowerback 18.7817 3.29627 -5.62175
upperback 3.20276 2.82303 -1.6431
thorax -7.23862 1.37136 0.733491
lowerneck -2.29688 9.59214 4.18393
upperneck 17.5144 14.5257 -14.0561
head 7.07564 6.12127 -4.14986
rclavicle -5.52621e-014 1.88845e-014
rhumerus -41.4023 -35.3018 1.22245
rradius 109.263
rwrist -26.2796
rhand 1.71661 -43.6238
rfingers 7.12502
rthumb 27.2335 -71.6778
lclavicle -5.52621e-014 1.88845e-014
lhumerus -28.2311 6.96572 25.4264
lradius 116.421
lwrist 6.30277
lhand -27.3797 -8.15801
lfingers 7.12502
lthumb -0.786844 21.8203
rfemur -25.7647 5.23469 20.9268
rtibia 16.6409
rfoot -5.95231 -7.16487
rtoes 7.19507
lfemur -81.1839 -17.5556 -2.44365
ltibia 101
lfoot -1.85599 -8.83824
ltoes 1.14401
196
root 16.9322 16.3295 -2.67695 -156.338 -79.2293 171.355
lowerback 18.9397 3.38817 -5.46838
upperback 3.07258 2.96258 -1.6529
thorax -7.46511 1.44254 0.589128
lowerneck -1.49221 9.08781 4.86855
upperneck 17.1287 13.82 -14.6227
head 6.82093 5.84369 -4.55057
rclavicle -2.18663e-015 2.68359e-014
rhumerus -41.3883 -34.5868 0.774561
rradius 108.915
rwrist -26.5317
rhand 1.03155 -43.9848
rfingers 7.12502
rthumb 26.578 -72.1398
lclavicle -2.18663e-015 2.68359e-014
lhumerus -28.0585 6.14012 25.7102
lradius 116.814
lwrist 6.33019
lhand -26.7329 -8.32539
lfingers 7.12502
lthumb -0.162104 21.6543
rfemur -26.3269 5.42829 20.5973
rtibia 17.0934
rfoot -6.08333 -7.52996
rtoes 6.68391
lfemur -80.8597 -17.3517 -3.17433
ltibia 100.759
lfoot -1.57968 -8.71648
ltoes 2.3773
197
root 16.9551 16.3347 -2.6533 -154.879 -79.2662 170.09
lowerback 19.1012 3.45129 -5.44561
upperback 2.93719 3.03523 -1.68455
thorax -7.70089 1.48375 0.510575
lowerneck -1.42138 8.74932 5.15216
upperneck 17.2544 13.3514 -14.6236
head 6.81446 5.63361 -4.64497
rclavicle 3.72721e-015 -1.11319e-014
rhumerus -41.0456 -33.8855 0.0879955
rradius 108.41
rwrist -26.7496
rhand 1.18647 -43.4891
rfingers 7.12502
rthumb 26.7263 -71.6216
lclavicle 3.72721e-015 -1.11319e-014
lhumerus -28.1628 5.2056 25.8489
lradius 117.282
lwrist 6.49325
lhand -26.3526 -8.20059
lfingers 7.12502
lthumb 0.205205 21.779
rfemur -26.6676 5.55764 20.1811
rtibia 17.1324
rfoot -6.05638 -7.85869
rtoes 6.36211
lfemur -80.3373 -17.1798 -4.07897
ltibia 100.454
lfoot -1.89541 -8.5285
ltoes -0.624468
198
root 16.9675 16.3367 -2.63015 -153.932 -79.359 169.266
lowerback 19.1501 3.44163 -5.49235
upperback 2.88633 3.0217 -1.57607
thorax -7.79043 1.48399 0.653079
lowerneck -1.72325 8.60224 5.32936
upperneck 17.7376 13.2265 -14.8634
head 7.03835 5.52558 -4.75599
rclavicle -2.08724e-014 5.56597e-014
rhumerus -40.3247 -33.2356 -0.766412
rradius 107.822
rwrist -26.8103
rhand 1.81651 -42.2714
rfingers 7.12502
rthumb 27.3291 -70.3103
lclavicle -2.08724e-014 5.56597e-014
lhumerus -28.6864 4.43101 26.1212
lradius 117.859
lwrist 6.50507
lhand -26.2976 -8.03406
lfingers 7.12502
lthumb 0.258273 21.9455
rfemur -26.7981 5.83035 19.8275
rtibia 17.0371
rfoot -6.10542 -8.38175
rtoes 5.90503
lfemur -79.6027 -17.0117 -4.92437
ltibia 100.09
lfoot -2.24561 -8.3495
ltoes -3.79533
199
root 16.9787 16.3416 -2.60716 -153.226 -79.4459 168.484
lowerback 19.2884 3.45189 -5.55641
upperback 2.99046 3.02289 -1.43403
thorax -7.7626 1.48399 0.839562
lowerneck -1.99841 8.4442 4.77754
upperneck 17.8887 12.9693 -14.2688
head 7.03064 5.39033 -4.48286
rclavicle 1.81391e-015 -1.68967e-014
rhumerus -39.4821 -32.7694 -1.65256
rradius 107.141
rwrist -26.6117
rhand 1.66764 -42.2354
rfingers 7.12502
rthumb 27.1867 -70.2967
lclavicle 1.81391e-015 -1.68967e-014
lhumerus -29.1957 3.94116 26.5203
lradius 118.423
lwrist 6.34786
lhand -26.2258 -8.08782
lfingers 7.12502
lthumb 0.327653 21.8917
rfemur -26.7373 6.18243 19.4842
rtibia 17.0061
rfoot -6.18389 -8.95072
rtoes 5.37921
lfemur -78.7068 -16.8111 -5.80169
ltibia 99.7094
lfoot -1.92172 -8.00817
ltoes -1.29442
200
root 16.9913 16.348 -2.58401 -152.078 -79.5553 167.112
lowerback 19.5472 3.4629 -5.61653
upperback 3.19978 3.00594 -1.35299
thorax -7.68008 1.46762 0.96136
lowerneck -2.30814 8.21024 4.33276
upperneck 17.824 12.613 -13.8349
head 6.96987 5.21605 -4.28663
rclavicle 1.09642e-014 2.36057e-014
rhumerus -39.0558 -32.075 -2.34971
rradius 106.624
rwrist -26.3232
rhand 1.20663 -42.6772
rfingers 7.12502
rthumb 26.7456 -70.8067
lclavicle 1.09642e-014 2.36057e-014
lhumerus -29.5558 3.59279 26.8785
lradius 118.984
lwrist 6.32433
lhand -26.281 -8.07779
lfingers 7.12502
lthumb 0.27435 21.9018
rfemur -26.5349 6.44629 19.0621
rtibia 16.9788
rfoot -6.2767 -9.43271
rtoes 5.02298
lfemur -77.6097 -16.6609 -6.88354
ltibia 99.229
lfoot -1.84489 -7.38701
ltoes 0.18598
201
root 17.0046 16.3517 -2.56417 -150.786 -79.7236 165.795
lowerback 19.5078 3.44022 -5.67976
upperback 3.40298 2.97146 -1.26927
thorax -7.44265 1.44275 1.10539
lowerneck -2.65348 8.04172 4.25688
upperneck 17.8 12.4037 -13.8716
head 7.00017 5.09777 -4.29083
rclavicle 3.32467e-014 -1.40143e-014
rhumerus -37.8755 -32.5982 -3.28386
rradius 105.148
rwrist -25.3581
rhand 1.91439 -42.3723
rfingers 7.12502
rthumb 27.4227 -70.3965
lclavicle 3.32467e-014 -1.40143e-014
lhumerus -29.8769 3.33042 27.2825
lradius 119.556
lwrist 6.24096
lhand -26.4189 -8.06893
lfingers 7.12502
lthumb 0.141176 21.9108
rfemur -26.5332 6.74021 18.6508
rtibia 16.9659
rfoot -6.44373 -9.96491
rtoes 4.69274
lfemur -76.6196 -16.4804 -7.80256
ltibia 98.6328
lfoot -2.04294 -6.93448
ltoes -1.34254
202
root 17.0205 16.3528 -2.54416 -149.822 -80.0035 165.029
lowerback 19.362 3.42241 -5.5623
upperback 3.43195 2.99358 -1.1996
thorax -7.33202 1.4509 1.11588
lowerneck -2.76557 7.90939 4.4346
upperneck 18.0516 12.2726 -14.1061
head 7.11396 5.01007 -4.40774
rclavicle -3.33461e-014 8.94531e-015
rhumerus -38.2211 -31.5873 -3.54543
rradius 105.016
rwrist -25.1142
rhand 1.45076 -42.1238
rfingers 7.12502
rthumb 26.9792 -70.2174
lclavicle -3.33461e-014 8.94531e-015
lhumerus -30.097 2.89952 27.6393
lradius 120.066
lwrist 6.03693
lhand -26.2849 -8.36151
lfingers 7.12502
lthumb 0.270614 21.6181
rfemur -26.8422 6.97579 18.3899
rtibia 17.0784
rfoot -6.53372 -10.5419
rtoes 3.92742
lfemur -75.96 -16.2516 -8.34182
ltibia 98.0035
lfoot -1.96534 -6.73506
ltoes -2.08971
203
root 17.0381 16.3482 -2.52188 -148.813 -80.2957 164.211
lowerback 19.3792 3.28707 -5.49207
upperback 3.41366 2.84351 -1.08089
thorax -7.35425 1.38109 1.24222
lowerneck -3.48092 7.80216 3.76368
upperneck 18.5468 12.1302 -13.4222
head 7.30543 4.89242 -4.06108
rclavicle -3.51352e-014 1.51076e-014
rhumerus -37.7879 -31.0499 -4.20916
rradius 104.481
rwrist -24.4308
rhand 0.824788 -42.5782
rfingers 7.12502
rthumb 26.3801 -70.7631
lclavicle -3.51352e-014 1.51076e-014
lhumerus -30.6931 2.71025 27.7863
lradius 120.563
lwrist 5.80826
lhand -25.7999 -8.73501
lfingers 7.12502
lthumb 0.739053 21.2435
rfemur -27.2394 7.17009 18.121
rtibia 17.3351
rfoot -6.58291 -11.0617
rtoes 3.62339
lfemur -75.3249 -15.9703 -8.91959
ltibia 97.377
lfoot -1.82662 -6.54853
ltoes -2.74798
